<?xml version="1.0" encoding="iso-8859-1"?>
<!-- Uploaded to: SVG Repo, www.svgrepo.com, Generator: SVG Repo Mixer Tools -->
<!DOCTYPE svg PUBLIC "-//W3C//DTD SVG 1.1//EN" "http://www.w3.org/Graphics/SVG/1.1/DTD/svg11.dtd">
<svg fill="#000000" version="1.1" id="Capa_1" xmlns="http://www.w3.org/2000/svg" xmlns:xlink="http://www.w3.org/1999/xlink" 
	 width="800px" height="800px" viewBox="0 0 193.373 193.374"
	 xml:space="preserve">
<g>
	<g>
		<path d="M179.538,39.332c-0.165-0.523-0.435-0.911-0.7-1.3c1.767-2.57,0.552-7.382-3.68-7.827
			C143.689,26.9,111.573,1.901,79.315,8.293C50.12,14.078,24.602,32.793,4.03,53.606c-0.773,0.78-1.068,1.624-1.041,2.418
			c-0.629,0.4-1.131,0.999-1.329,1.866c-4.861,21.341,2.609,42.124,1.543,63.691c-0.707,14.322-3.647,30.979,6.195,42.828
			c17.605,21.196,69.116,22.562,94.048,21.428c1.02-0.046,1.854-0.359,2.525-0.834c0.1,0.011,0.18,0.054,0.287,0.053
			c29.575-0.239,61.894-17.277,78.912-41.414C202.789,118.656,187.773,65.503,179.538,39.332z M86.574,17.143
			c27.502-1.995,54.221,16.027,81.436,21.361c-16.152,18.503-33.084,33.582-57.91,40.393c-28.47,7.81-72.455-12.575-99.594-21.838
			C32.241,39.641,57.964,19.22,86.574,17.143z M101.377,176.499c-26.374,0.931-56.713-2.933-80.195-14.972
			c-14.447-7.407-9.245-32.288-8.681-45.577c0.756-17.796-5.143-34.719-4.287-52.515c0.046,0.021,0.071,0.059,0.119,0.079
			c28.821,12.022,63.999,27.455,96.35,25.346C100.25,116.59,96.214,149.184,101.377,176.499z M180.44,130.676
			c-4.957,27.783-48.756,41.924-72.739,48.853c-0.059-0.202-0.1-0.409-0.183-0.6c0.438-0.531,0.74-1.185,0.728-2
			c-0.264-16.219,0.65-32.208,2.361-48.334c1.393-13.12,4.711-27.477,2.719-40.731c21.822-3.808,45.258-20.681,58.987-39.538
			C178.601,75.084,185.31,103.383,180.44,130.676z"/>
		<path d="M117.508,37.226c-4.61-0.026-9.211-0.116-13.805-0.181c-0.876-3.946-1.789-7.885-2.761-11.814
			c-1.044-4.221-6.377-4.275-8.577-1.121c-2.92,4.186-5.837,8.592-8.505,13.163c-5.141,0.256-10.277,0.705-15.411,1.538
			c-5.088,0.825-3.845,7.613,0,9.082c2.872,1.097,5.719,2.246,8.527,3.47c-0.582,1.509-1.109,3.028-1.581,4.561
			c-0.109,0.105-0.235,0.185-0.34,0.296c-1.109,1.176-1.725,2.947-1.201,4.544c0.04,0.124,0.082,0.249,0.122,0.373
			c0.683,2.082,2.321,3.274,4.487,3.416c1.322,0.087,2.248-0.184,3.512-0.609c1.301-0.438,2.261-1.644,2.639-2.959
			c1.969-0.926,4.26-1.637,6.397-2.352c3.145,1.919,6.218,3.965,9.112,6.323c3.845,3.133,8.491,0.142,7.856-4.573
			c-0.426-3.163-0.93-6.31-1.48-9.448c3.726-1.936,7.595-3.599,12.264-4.438C124.127,45.531,122.691,37.254,117.508,37.226z"/>
		<path d="M167.184,111.289c0.521-7.857-5.83-13.871-13.218-14.796c-1.78-0.223-3.521-0.039-5.219,0.306
			c-0.206-0.086-0.395-0.179-0.639-0.252c-2.649-0.791-4.982-0.264-7.451,0.828c-6.262,2.772-9.693,10.871-10.936,17.108
			c-1.371,6.88,0.117,14.607,5.598,19.325c6.791,5.844,16.702,5.485,23.621,0.133c5.017-3.881,7.896-9.906,7.345-16.009
			C166.792,115.665,167.048,113.355,167.184,111.289z"/>
		<path d="M79.905,110.842c0.016-1.828-1.392-4.148-3.362-4.416c-8.123-1.102-16.26-2.267-24.474-2.235
			c-1.569,0.006-6.577,0.4-9.009,2.009c-0.024,0.001-0.051,0.002-0.075,0.003c-1.669,0.075-2.945,0.874-3.728,2.036
			c-4.488,2.194-4.232,8.805-4.579,13.256c-0.563,7.217-0.559,14.453-0.58,21.688c-0.008,2.771,2.148,4.371,4.669,4.67
			c6.476,0.766,12.974,1.247,19.435,1.997c4.285,0.849,8.608,1.503,12.894,2.081c0.053,0.012,0.107,0.018,0.16,0.029
			c0-0.002,0.001-0.005,0.001-0.007c0.418,0.056,0.84,0.121,1.256,0.176c4.229,0.561,5.665-4.798,3.545-7.64
			C77.779,133.313,79.808,122.19,79.905,110.842z"/>
	</g>
</g>
</svg>