<?xml version="1.0" encoding="UTF-8" standalone="no"?>
<svg
   xmlns:dc="http://purl.org/dc/elements/1.1/"
   xmlns:cc="http://creativecommons.org/ns#"
   xmlns:rdf="http://www.w3.org/1999/02/22-rdf-syntax-ns#"
   xmlns:svg="http://www.w3.org/2000/svg"
   xmlns="http://www.w3.org/2000/svg"
   viewBox="0 0 300 300"
   height="300"
   width="300"
   id="svg372"
   version="1.1">
  <metadata
     id="metadata378">
    <rdf:RDF>
      <cc:Work
         rdf:about="">
        <dc:format>image/svg+xml</dc:format>
        <dc:type
           rdf:resource="http://purl.org/dc/dcmitype/StillImage" />
        <dc:title></dc:title>
      </cc:Work>
    </rdf:RDF>
  </metadata>
  <defs
     id="defs376" />
  <path
     id="path382"
     d="m 146.2987,280.78812 c -1.13968,-2.95119 -0.8861,-7.62686 -1.09064,-65.33696 l -0.2209,-62.32351 c -34.18028,1.71533 -41.96155,36.48326 -44.80444,67.16891 -0.911476,9.8383 0.0951,31.3872 -6.689348,31.57553 -6.419608,0.1782 -4.588848,-29.31327 -4.179865,-34.98915 1.312009,-37.38989 18.615593,-74.51178 55.386593,-75.32253 l -0.16834,-21.64498 c -33.4037,-2.43781 -47.323017,-30.483441 -46.66037,-62.173633 0.49089,-5.040012 0.636751,-16.334601 5.90882,-16.593865 6.97325,-0.342924 5.81231,14.268777 6.09355,19.653865 1.19463,22.874908 8.04744,46.604333 34.4318,47.525643 l -0.037,-43.819635 c -0.0358,-42.492017 0.1436,-43.377405 1.49887,-46.748569 2.23612,-5.562243 8.23919,-1.454558 9.76751,1.357128 1.02428,1.915502 0.61614,6.277925 0.92063,44.850351 l 0.35021,44.363875 c 26.99923,-1.55311 31.04242,-29.571769 31.974,-47.59774 0.78976,-15.281981 1.00514,-19.03506 5.00805,-19.670502 5.54709,-0.880573 6.69725,10.071138 6.63802,13.987263 0.72181,30.469302 -9.8736,62.983699 -43.61265,64.847049 l 0.15354,21.81347 c 34.17316,1.58302 50.41149,32.56603 53.40064,70.19667 0.90693,11.41734 2.85801,39.96282 -5.3455,39.74631 -4.62323,-0.12202 -4.66463,-20.88058 -5.16392,-28.50919 -2.35293,-33.11053 -10.151,-68.78667 -42.9276,-69.87252 l 0.0793,62.97121 c 0.0883,70.15745 -0.15209,66.52167 -4.85413,68.35434 -3.44689,1.34347 -4.71864,-0.86146 -5.85683,-3.80883 z"
     style="fill:#ffffff;stroke-width:0.69052058" />
</svg>
