<?xml version="1.0" encoding="UTF-8"?>
<!-- Uploaded to: SVG Find, www.svgrepo.com, Generator: SVG Find Mixer Tools -->
<svg fill="#000000" width="800px" height="800px" version="1.1" viewBox="144 144 512 512" xmlns="http://www.w3.org/2000/svg">
 <g>
  <path d="m416.89 394.21h1.6328l1.9648-0.35938h2.7734l1.5703-0.39453 1.5625-0.41016 1.6211-0.34766 0.75-0.46875h0.74609l1.2266-0.34766 1.2148-0.39844h0.80078l1.1641-0.39844h0.35156l1.207-0.41797 1.9727-0.75h1.5664l1.2148-0.45703 0.75391-0.35938h2.0273l0.75-0.39844h0.46094l1.1562-0.40625 1.9648-1.5625 1.5703-1.2148 0.39844-0.35156 2.7852-3.9414 0.8125-4.7305-0.8125-4.75-2.7852-3.9961-1.9688-1.1641-0.39844-0.40234-0.75-0.40234-1.2148-0.75h-1.2188l-1.5625-0.46875-1.9688-0.34766-4.7539 0.81641h-0.39844l-0.35547 0.34766h-0.80469l-0.41016 0.40234h-0.40625l-0.34766 0.40234-0.80078 0.40234h-0.41016l-0.80469 0.41016h-0.41016l-1.5625 0.75391-1.9688 0.79688h-0.75l-1.6172 0.41797-0.41016 0.34766h-0.75781l-1.2109 0.45312-1.2148 0.35156h-1.1641l-0.81641 0.41406h-1.9648l-1.5586 0.39844h-3.1797l-1.5742-0.39844h-2.7695l-1.5625-0.41406-2.3711-0.80469-1.9727-0.34766-2.0234-0.81641-2.7266-1.1523-2.3789-1.2148-2.375-1.2188-1.5586-1.1641-2.7695-1.957-1.9727-1.9766-1.6211-1.6133-1.5625-2.3242-1.9648-2.7852-1.5703-2.7617-1.6172-3.1328-1.5664-3.5859-1.5664-3.5977-1.6172-3.1211-1.1562-3.5898-1.1641-3.9336-1.2109-4.3438-1.2148-3.9336-1.1602-4.3438v-0.41016l-1.1523-3.9922-1.2266-4.3008-1.207-4.3867-0.76172-3.9414-0.39844-4.3398v-0.41016l-0.80859-3.9336-0.34766-3.9414v-15.848l0.34766-3.4883v-4.3906l0.46484-2.3711v-0.75391l0.74219-3.5977 0.76172-3.125 0.80859-3.1758 1.1562-2.7812 1.2148-3.1875 0.81641-2.3203 1.5547-2.7773v-0.40234l0.41016-0.75391 1.2109-2.7773 1.5586-2.4336v-0.33594l1.2227-2.7891 1.5039-1.9648 0.46875-0.40625 0.34766-0.39844 1.1523-1.9766 1.6172-1.9688 1.9688-2.3672 1.9766-2.3828 1.625-1.6211 1.9648-1.5039 0.34766-0.45312 0.45703-0.36328v-1.207l1.9688-1.5625 2.3164-1.9766 1.6172-1.1523 1.5625-0.80469 0.40625-0.41016 1.1641-0.40625 1.625-1.1641 1.5547-0.79297 0.41016-0.41797h0.35156l2.0234-1.2148 2.375-1.1641 1.9688-0.80469 1.9688-0.75391h0.80469l1.9688-0.8125 1.5664-0.39844h3.1836l1.9688-0.34766h10.309l1.9648 0.34766h1.1562l2.7812 0.39844 1.9688 0.41797 3.1289 0.8125 3.1836 0.74609 2.7812 0.80469 2.3633 0.75391 2.7852 1.6328h0.34766l3.1797 1.1562 2.3789 1.207 2.375 1.5508 3.1914 2.3828 3.1172 1.9727 2.375 1.5703 2.0195 1.957 0.34766 0.46875 0.40625 0.34766 1.9688 1.6211 2.0273 1.9648 2.3164 2.3281 1.9805 2.7695 1.9648 2.7773 1.6211 2.3828 1.5586 2.7617 0.40625 0.40625 0.35547 0.81641 2.0156 2.3164 1.5547 2.7812 1.6328 2.7773 1.1484 2.3711 0.81641 2.3789 0.34375 0.81641v0.74219l1.2188 2.375 0.74609 2.7734 0.46875 1.9688 0.33984 1.9688v1.2188l0.41406 1.9805v6.2969l-0.41406 2.3711-0.33984 2.3867-0.46875 2.3633-0.33984 1.9688-0.81641 1.9648v0.81641l-0.80859 1.5742-1.1602 1.6055v0.35156l-0.40234 0.41016-1.2148 2.3633-0.75 1.6328-1.2188 1.1562-0.34766 0.80859-0.40234 0.33594-1.2148 1.6328-1.5625 1.1562-0.75391 0.80859-0.80469 0.34766-1.1641 1.6211-1.6211 1.1758-2.7812 2.4219-1.9688 1.4922-1.9648 1.6328-0.41016 0.39844-0.40625 0.41016-1.9688 1.5625-2.3672 1.5625-2.375 1.6055-2.3125 1.1758h-0.46875l-2.7773 1.6211-2.7188 1.1484-0.40625 0.35547h-0.41016l-2.3789 1.625-2.7695 1.1523h-0.34766l-3.1836 1.2148-2.7227 1.2109-2.4219 0.75391-2.7852 0.39844h-0.75l-2.3789 0.41797h-10.309l-1.9648-0.41797-2.7773-0.79688-2.7812-0.80859-2.3164-0.75781-2.3789-1.2148-2.3711-1.1523-2.7734-1.625-2.375-1.1562-1.9648-1.1523-1.9727-1.6328-2.0234-1.5664-1.1602-1.2148-1.5664-1.9648v-0.34375l-1.5625-1.625-0.81641-1.1562v-0.40625l-1.6172-1.9609-0.75781-1.5664-0.74219-1.2227-0.46875-1.5625-0.34766-1.1562v-0.45312l-0.80469-1.5703-0.41016-1.1523-0.40625-1.5664v-2.7773l-0.34766-1.9805-0.46094-1.6055v-5.918l0.46094-1.1641 0.34766-2.0117v-0.75781l0.40625-1.6211 0.41016-0.81641v-1.1562l0.39844-1.1484v-0.41797l0.40625-1.2109 0.34766-1.1562 0.46875-0.80859 0.34766-0.80859 0.80078-0.74609 0.35156-0.81641 0.81641-0.75391 1.6172-1.6289 0.74219-0.80469 1.2305-1.1641 0.80859-0.34766 0.34766-0.44922 0.39844-0.35547 0.76172-0.81641 0.8125-0.39844 0.39453-0.41406 0.81641-0.34375 1.5586-1.207 1.1641-0.75781 0.45703-0.45703 1.1641-0.35938 0.34766-0.39453 2.0156-1.2148 0.75781-0.75781 1.2109-0.80859 1.5742-1.2148 0.40234-0.35938h0.39844l1.168-0.79688 0.46484-0.34766 1.5-0.46875h0.46875l1.5-0.75 1.6172-0.81641 1.1641-0.39844 1.625-0.35547h0.80078l0.75781-0.39844h5.1445l0.81641 0.39844h0.34766l0.80859 3.9336h0.81641l0.34766 0.35938 0.45312 0.45703 0.34766 0.35938 0.40625 0.39844 0.41016 0.80859 0.80469 0.75781 1.1641 1.2148 0.34766 0.39453 0.45312 0.35938 0.76172 0.80469 0.40625 0.41016 0.41016 0.81641 0.40234 0.39062 0.34766 0.75781 0.81641 0.80469 0.80078 0.76562 0.80859 1.2148 0.75781 0.74609 0.8125 1.6172 0.39453 0.40625 0.81641 1.2148v0.34766l0.34766 0.41797v0.39844l0.80859 0.81641 0.34766 0.74609 0.46875 0.40234v0.34375l0.33984 0.47266 0.41016 1.5508 0.39844 0.41797v0.79688l0.35156 1.1758v3.5273l-0.35156 1.2188-0.39844 1.5508v0.40625l-0.41016 0.34766-0.80859 1.2148-0.34766 0.81641-0.39844 0.39453-0.75781 1.1641-0.81641 0.81641-0.39453 0.34766-0.41016 0.45703-1.6172 0.75391-0.35156 0.39844-0.80078 0.35938-0.81641 0.80469h-0.75l-0.41016 0.41016-1.168 0.40234-1.2109 0.40625h-3.9336l-0.80469-0.40625-0.75781-0.40234-0.81641-0.41016h-0.39844l-0.40234-0.35156-0.81641-0.45312-0.35156-0.35938-0.80078-0.79297-0.41016-0.35938-0.40625-0.45703-0.34766-0.34766-0.80078-0.81641-0.41016-0.34766v-0.81641l-0.40625-0.39453-0.8125-0.81641-0.75-0.39844-0.40625-0.81641-0.80859-0.75391-0.75391-1.2148-0.41016-0.33594-0.39453-0.41797-0.42188-0.39453-0.33203-0.40625-0.46875-0.41016-0.34766-0.34766-0.81641-0.80469-0.33594-0.41797-0.81641-0.73828-0.40625-0.47656-0.41016-0.33203-0.33594-0.41406-1.2266-0.41016-0.40625-0.35156-0.80078-0.79688-1.5742-0.41797h-1.2109l-1.1523 0.41797-0.8125 0.34766-0.80859 0.44922-1.1641 2.7227v1.5703l0.41016 1.9648 0.40625 0.45703 0.34766 0.75781 0.45312 0.40625v1.1641l1.5625 1.9609h0.41016l0.34766 0.46484 0.46875 0.34766v0.40625l0.34375 0.75781 0.80859 0.81641 0.81641 0.79297 0.75 1.1641 0.39844 0.41016 0.40625 0.40234 0.41016 0.40625 0.35156 0.41016 0.46484 0.34766 0.74609 0.79688 0.75391 0.41797 0.80469 0.75391 1.1641 1.2109 0.80078 0.81641 0.42188 0.39844 0.39453 0.33594 0.41016 0.41797 0.40625 0.39844 0.80859 0.81641 0.75391 0.35547 0.41016 0.45312 1.1523 0.75781 0.81641 0.39844 0.80078 0.34766h0.75391l0.41016 0.46875 0.80078 0.33594 0.82031 0.41016h0.34766l0.40234 0.40625 1.2148 0.41016 1.1562 0.40625h5.9062l2.7891-0.40625 0.80078-0.41016h0.80859l0.35938-0.40625 1.6055-0.41016 0.81641-0.33594 1.1562-0.46875 0.81641-0.74609 5.4961-1.9766 1.2188-0.80469v-0.41797h0.33594l0.41016-0.33594 0.75391-0.39844 1.2148-0.81641 0.41016-0.41016 1.625-1.1641 0.34375-0.80859 0.80859-0.79688 1.1562-1.5664 0.80859-0.76172v-0.45312l0.35547-0.35938 0.80469-1.1523 0.41016-0.80469 0.80859-0.81641 0.39844-1.1641 0.81641-1.2109 0.34766-1.5625 0.41016-1.6211 0.39453-1.5547v-1.2148l0.35938-1.1641 0.45703-1.5625v-5.9609l-0.45703-1.5625v-1.1641l-0.35938-0.81641-0.39453-1.207v-0.34766l-0.41016-1.6133-0.34766-0.76562-0.46484-1.5625-0.35156-0.80859-0.39844-0.80859-0.40625-0.34766v-0.81641l-0.34375-0.80859-0.46875-1.1445-1.5625-2.4375-0.40625-0.35938-0.33984-0.79688v-0.34766l-0.81641-1.625-0.40234-0.41016v-0.39844l-0.75-1.1523-0.81641-1.1641-0.40234-0.46094-0.40625-0.35547-0.41016-0.80859-0.40625-0.34766-0.33984-0.46094-0.46875-0.75391-0.75391-1.2148-0.41016-0.34766-0.33594-0.46484-0.8125-0.75781-0.81641-0.73828-0.80469-0.80859v-0.41016l-1.1641-1.2227-0.39844-0.34766-0.40625-0.80859-0.34375-0.41797-0.46875-0.39062-1.5-1.1562-0.81641-0.80469-1.2109-0.81641-0.76172-0.34766-0.80469-0.41797-0.80078-0.78906h-0.35938l-0.80859-0.75781h-0.40234l-0.39844-0.45703-1.1641-0.35938-1.2188-0.40625h-1.2148l-0.75781-0.39844-1.9688-0.34766h-4.3438l-1.9688 0.34766-1.2109 0.39844h-1.2109l-1.1602 0.40625-1.1523 0.35938-1.625 0.45703-1.5586 0.33594-1.5703 0.42188-0.39844 0.39453h-0.75391l-2.0312 0.8125-1.2188 0.34766-1.5 0.81641-0.46875 0.39844h-0.75781l-1.5586 0.74609-0.41016 0.47266h-0.39453l-1.6211 1.1523-1.1641 0.80859-1.5547 0.76562-0.41406 0.39844h-0.34766l-0.45703 0.40625-0.75391 0.41016-0.81641 0.33594-0.75 0.47266-1.6172 0.73828-0.34766 0.40625h-0.46094l-1.5781 1.1641-1.2109 0.81641-1.1484 0.81641-0.35156 0.33594-1.2227 0.80859-1.2109 0.80859-0.75391 0.81641-0.39844 0.34766-0.81641 0.39844-1.5586 1.5703-0.75781 0.80859-1.6172 1.625-1.1523 1.1445-0.40625 0.81641-0.41406 0.35938-0.80469 1.207-1.1602 1.1562-0.39844 0.40234-0.41797 0.41406-0.80078 1.2109-0.75 1.1562-0.41797 0.80859-0.39844 0.34375-0.75 1.9844-0.46875 1.2148-0.75 1.5508v0.8125l-0.40234 0.40625-0.81641 1.9805v0.74609l-0.34766 0.80859v0.80859l-0.39844 0.81641-0.40234 1.5508-0.35547 1.5664v0.41016l-0.46094 0.74609v0.81641l-0.35547 0.81641-0.40625 1.9688-0.39453 2.3633v7.4766l0.39453 2.4336 0.40625 1.1445v1.6328l0.35547 1.5664 0.81641 2.3672v0.80859l0.80078 1.9727 0.34766 0.74609v0.40625l0.81641 1.1758 0.40234 1.6055 0.39844 0.81641v0.74609l1.168 1.9727 0.40234 0.40625v0.39844l1.2148 1.9727 0.35156 0.41016v0.33594l1.6172 2.0312 1.1602 1.9648 0.40625 0.41797 0.8125 1.1523 1.9648 1.9648 1.5625 1.9688 0.40625 0.46094 0.41016 0.34766 1.9648 1.9727 0.80469 0.39844 0.34766 0.39844 2.4336 1.9805 2.3164 1.9609 0.39453 0.41406 0.41797 0.39453 2.7773 1.5742h0.35156l2.4297 1.5508 2.7734 1.6289 2.7266 1.5703h0.40625l3.1211 1.5508h0.46875l0.34766 0.41016 3.1797 1.2227 2.7227 0.80078 3.2422 1.1641h0.75391l3.1797 0.81641h1.5664l3.1836 0.33984 3.5273 0.40625h9.4414l2.7773-0.74609 3.1875-0.47656h1.2148l3.1172-0.73828 0.41016-0.41797h0.40625l3.5977-1.1484h0.75l3.1914-1.2227 3.1172-1.2266 0.80469-0.33594h0.35938l2.7695-1.6211 2.7773-1.1602 0.40625-0.40234h0.75391l2.7852-1.5586 2.4219-1.1641 0.36328-0.46875h0.39453l2.7852-1.5h0.40625l3.1211-2.0234 0.40625-0.41016 0.41016-0.34766 2.3672-1.6133 2.3672-1.5664 0.35156-0.40625 0.80859-0.34766 2.4336-2.0312 2.7188-2.3633 2.3789-1.9688 0.81641-0.81641 0.80078-0.75 1.5-2.0312 1.6328-1.5117 0.80078-1.207 0.82031-0.80469 1.5-1.9727 1.6211-1.5625 0.80469-1.207 0.34766-0.39844 1.6172-2.7969v-0.34766l1.1641-2.375 1.6211-2.0195 0.34766-0.75391 0.41016-0.75 1.2148-2.4297 1.1562-2.3281v-0.45312l0.41016-0.75781 0.75391-3.1875v-0.74609l0.46094-2.7852 0.34766-3.1797v-0.34766l0.40625-3.1836v-13.438l-0.40625-2.3711-0.34766-2.3672-0.46094-0.81641-0.35547-1.1562-0.80859-2.7812-1.1562-3.1797-0.39844-0.35547v-0.45703l-0.81641-2.3203-0.75781-2.3711-0.45703-1.2148v-0.8125l-1.5078-3.5195-0.45703-0.41797v-0.34766l-1.5117-3.1797-2.0234-3.1914-0.40625-0.33594-0.35547-0.81641-1.957-2.3672-1.6211-2.7812-0.40625-0.40625-0.41016-0.81641-2.3164-3.1289h-0.46875l-0.33203-0.39844-2.3867-2.7266-2.3633-3.1797-0.41016-0.40625-0.41406-0.39844-2.7734-2.7227-2.3086-2.7734-0.81641-0.8125-0.81641-0.81641-2.3633-1.9688-2.3789-2.3633-1.1484-0.76562-0.82031-0.80859-3.1289-1.9688-3.1797-1.9688-3.5391-2.4219-3.1758-1.9766-0.80859-0.34766-0.41016-0.40234-3.1289-1.5664h-0.39844l-3.1875-1.2148-3.125-1.5664h-0.40234l-0.40625-0.39844-3.125-1.2148h-0.46875l-0.34375-0.35938-3.1836-0.80469-3.1875-0.81641-3.125-0.80078-3.1289-0.75391h-1.6172l-3.1328-0.39844-2.4219-0.35937-2.3203-0.45703h-5.207l0.80469 1.2148h-8.2695l-2.3867 0.41797h-1.9688l-0.80078 0.33594-1.9727 0.45312-3.1328 0.75781h-0.80078l-2.3711 0.80469-2.7891 0.76562-0.75 0.45703h-0.80859l-2.7773 1.1562-2.7773 1.1641-0.35156 0.40234h-0.81641l-2.3711 1.2148-2.0234 1.1523-0.33984 0.41406-1.625 0.75-1.9688 1.6172-1.9688 1.1523-0.34375 0.41797-1.2148 0.79688-2.3867 1.9766-2.3672 1.957-2.3672 1.9922-0.35547 0.39062-0.46094 0.41016-1.5625 1.5625-2.3789 1.9688-0.34766 0.81641-0.80078 0.39453-1.9688 2.375-1.9648 2.3125v0.46094l-1.9727 2.3281-2.0234 2.7812-0.76172 1.2109-0.46875 0.39844-1.4961 2.7812-1.6211 2.3203-0.34766 0.80469-0.46875 0.40625-1.5586 3.1914-1.5586 3.1211v0.39453l-0.41016 0.76562-1.2148 2.7773-1.5703 2.7812v0.40625l-0.39453 0.74609-1.1641 3.1992-1.1523 3.5234-1.2227 3.5859v0.40625l-0.39453 0.41016-0.81641 3.5273-1.1641 3.5352v1.2148l-0.80469 3.5352-0.80859 3.5781-0.35156 2.7852v3.1211l-0.39844 3.1875v19.398l0.39844 4.7422v1.1562l0.8125 3.9375 0.34766 4.3477v1.2148l0.80469 4.3398v0.39062l1.1641 4.7578 1.2109 4.7461v0.75391l1.2227 4.3398 1.1523 4.4141v0.75391l1.1641 4.3281 1.2109 4.3477v0.40625l1.2148 3.9375v0.40625l1.5039 3.9844 0.46094 0.76172v0.41406l3.1328 7.0547 1.9688 3.5859v0.80469l1.9727 3.543v0.40625l1.9648 3.5898 0.46484 0.34766 1.9727 3.168 1.9648 3.1992 0.34766 0.33594 0.80469 1.2148 2.375 2.7266 0.40625 0.47266 0.34766 0.33984 2.4219 2.3672 0.35547 0.41797 0.46094 0.39844 2.7227 2.3711 2.7852 1.9609 1.2148 0.81641 0.33594 0.35156 3.1953 1.6211 2.7188 1.5625h0.45703l0.75781 0.39844 2.7734 1.1758 2.7227 1.207h0.81641l1.2109 0.39844 2.7266 0.81641 2.7812 0.75781h0.80469l3.1289 0.39453h3.9844l1.9688 0.35938z"/>
  <path d="m621.73 453.73v-1.5664l-0.46875-3.1836-0.34766-3.5977v-1.4922l-0.80469-4.0039v-0.74609l-1.1641-4.4141v-0.33984l-0.80078-3.9336-0.81641-3.9961-0.80469-1.5742-0.34766-1.2109-1.625-3.1797-1.1641-3.5312-0.81641-1.207v-0.76562l-1.5469-3.1797-1.9766-3.9336-0.41016-0.34375-0.39062-0.8125-1.9727-3.1953-1.9727-3.9336-0.39844-0.40625-0.35547-0.81641-2.4297-3.5195-0.34766-0.41797-0.46094-0.79297-2.7188-3.5391-2.7891-3.9961v-0.33594l-2.707-3.5977-3.2578-3.543-0.34766-0.39062-0.40234-0.35156-3.5312-3.5898h-0.45312v-0.41797l-3.4805-3.168-0.45312-0.34766v-0.41797l-3.1328-2.7695-3.1211-2.7734-0.82031-0.40234-0.39844-0.35938-3.5352-2.7773-0.46875-0.39844-0.34375-0.41016-3.5938-1.9727h-0.33984l-0.46094-0.39844-3.5273-1.5625-3.1914-1.6211h-0.34766l-2.375-0.75781-3.1836-0.75391-2.7852-0.80078h-0.80078l-0.75781-0.41016-3.9336-0.81641h-0.41406l-3.582-0.40625h-0.35156l-3.1797-0.34766-3.5352-0.46094-3.1836 2.0312h-12.676l-2.3086 0.41016-2.4492 0.34766h-1.1484l-2.7852 0.79297-2.3164 0.41406h-1.6094l-1.9688 0.39844-2.375 0.35938-1.2109 0.45703h-0.75781l-1.5703 0.75391-1.6172 0.41016-1.1562 0.40625h-0.80859l-1.5625 0.73828-1.5781 0.81641-0.45312 0.41797h-0.34766l-1.1641 0.75391-1.6172 0.45312-0.35156 0.34766h-0.80078l-1.6211 0.80859-0.80469 0.34766-0.35156 0.46484h-0.40625l-1.2188 0.74609-1.5625 0.41016-0.41016 0.40625-1.1484 0.40234-1.1562 1.1562-0.47656 0.41797-0.74609 0.39844-0.40625 0.34766-0.33594 0.46875-0.48047 0.33594v0.41016l-0.33203 0.40234-0.41016 0.82031-0.41016 0.75v2.0117l0.41016 0.76562 0.41016 1.5547 0.33203 0.81641v0.39844l0.48047 0.39844 0.33594 0.35938h0.40625l1.2227 0.81641 0.33984 0.40625h0.81641l2.375 0.41016h1.9648l1.2148-0.41016h0.34766l1.9648-0.40625 0.80859-0.41016h0.81641l1.5586-0.40625 1.5703-0.35938h0.39844l1.207-0.39844h0.35938l1.2188-0.39844 1.5586-0.41797h0.80859l1.6289-0.39844 1.5078-0.34766h0.80469l1.1641-0.46094h2.4219l1.1641-0.33984 1.1484-0.40625h2.4375l1.5586-0.41016h3.1953l2.7734-0.35547h3.9375l2.3125-0.44922h8.6875l2.7773 0.44922h0.45703l3.125 0.35547 3.1328 0.41016 2.7812 0.40625 2.4297 0.80078h0.34375l0.81641 0.34766 2.3164 0.81641 2.0195 1.1562h0.41797l0.33203 0.40625 3.1953 1.5625 2.3711 1.6172 4.3477 4.3477 2.7734 2.7812h0.40625v0.39844l3.1211 2.7812 3.1914 3.1289 2.7773 3.1328 2.3672 3.1797 2.3203 3.1836 2.7852 3.9336 2.418 3.1211 1.5664 2.7852 1.5664 3.5977 0.39844 0.39844v0.39453l1.5703 3.1289 1.6172 3.9375v0.81641l1.1641 3.1875 0.80859 3.1836 0.34766 0.33203v0.41797l0.80859 2.7773 0.39844 2.7188v0.46094l0.76172 3.9336 0.8125 3.9336 0.39453 2.7969v4.7383l0.41016 3.1367v2.7812l-0.41016 3.5781v3.5312l-0.39453 2.7266v1.2188l-0.34375 3.1836-0.82031 3.9336-0.41016 3.1211-0.73828 2.7852-0.81641 2.7734-1.2188 3.5781-0.75391 2.7969-1.2188 2.3164v0.80078l-1.5664 3.1367-1.1484 2.0273-2.0234 2.3633-0.41016 0.81641-0.35156 0.35938-1.6172 2.7656-1.5625 1.9648-2.0234 2.3711-0.34766 0.81641-0.39844 0.41016-1.5742 1.9688-1.9688 1.9648v0.34375h-0.39844l-2.3789 2.4336-1.9688 1.9805-2.3789 1.543-2.7695 1.9727-0.41016 0.41797-0.80469 0.39062-1.9648 1.5703-1.5625 0.80859-2.7266 1.1641-0.8125 0.39453-0.80469 0.39844-2.3867 1.1758-2.7773 1.2109h-0.75l-3.9336 1.5508-2.7773 1.2344-2.7852 0.75-3.5859 0.80859h-0.80078l-3.543 1.1523-3.5352 0.46875h-0.39844l-3.9961 0.74609h-0.75781l-3.1758 0.76562h-4.2852l-4.4023 0.45313-3.5312 0.36328h-7.1133l-3.5859-0.36328-4.3008-0.45313h-0.45703l-3.9453-0.36328-3.1172-0.40234-3.5898-0.74609h-0.8125l-3.5273-0.81641-3.1953-0.80469-3.1172-1.1641-3.5898-1.2109-2.3164-0.76172-1.6172-0.80078-2.3789-1.6172-2.7227-1.9688-1.9727-1.5703-1.6172-1.5547-1.1562-1.625-1.2227-1.5742-0.75-1.9648-1.2148-3.1836-0.75391-2.3125-0.80469-2.4336-0.81641-3.1289-0.39453-1.9648v-3.1758l-0.40625-2.7266v-15.867l0.40625-2.3125v-0.46094l0.39453-2.7852 0.81641-3.5273v-0.41016l0.35156-3.1172 0.45312-2.3789 1.1641-3.1953 0.80469-2.7695 0.75-1.9531 1.5742-2.3281 1.9688-3.2461 1.9648-3.1172 1.9688-2.7852 2.7891-3.1211v-0.41797l1.6055-2.3789 2.3789-1.9531 0.40625-0.39453 0.34766-0.41797 2.4336-2.375 2.3047-1.9609 2.7852-2.3828h0.40625l2.3789-1.9609 2.375-1.625 2.7227-1.5039 2.4258-1.2148 2.7695-1.5703 1.5117-0.81641 2.4219-0.39453 3.543-0.75391 2.7812-0.45703h2.7266l2.4219-0.36328 1.9727 0.36328 3.1172 0.45703 2.7852 0.35938 2.375 0.39453h0.40625l1.9648 0.39453 1.1602 0.34766 2.4336 1.2305 1.9688 1.207 1.5547 0.81641 0.75781 0.33203 0.81641 1.1719 0.39844 0.46484 0.40625 0.34375 1.1641 1.2148 1.2109 1.5625 1.2148 1.6172 1.1484 1.9805v0.33594l0.35938 0.81641 0.46094 1.1523 0.34766 0.81641v0.41797l0.80859 1.5469 0.41016 1.625 0.39844 1.5547v0.41797l0.35156 2.3086 0.45703 2.0312 0.35547 3.1836 0.40625 1.9609v3.9336l-0.40625 1.5703-0.35547 2.375v4.7539l-0.80859 1.6172v0.33984l-0.80859 1.9805-0.80859 1.957v0.81641l-0.80859 1.1602-0.35938 0.80469-0.39844 0.41797-1.2109 2.3633-1.1562 2.3672-1.1602 1.5664-0.8125 1.625-0.80469 0.74609-0.81641 0.81641-0.34766 0.75391-0.80469 0.45703-0.34766 0.35938-0.8125 0.80078-1.6211 0.81641-0.34766 0.34766-0.46875 0.40234h-0.33984l-1.625 1.2109-0.75 0.35547-0.75391 0.39844h-0.80469l-0.81641 0.40234-1.1523 0.41016h-0.48047l-1.4961 0.40625-2.0312 0.35547h-2.7227l-0.80078-0.35547h-0.41016l-0.75391-0.40625-1.6133-1.9648-0.41016-1.2148-0.40625-0.34766v-0.81641l-0.34375-1.9805v-0.39062l0.34375-0.39844 0.81641-1.1641 0.80469-1.625 1.1641-5.8984-1.1641-5.9023-1.2148-1.6328-1.9648-3.1211-1.9688-1.2148-2.7812-1.9727h-0.75391l-2.4297-0.40234-3.1289-0.8125h-1.1641l-5.9531 1.2148-1.5586 1.2227-3.1875 1.9648-0.41016 0.34766-0.81641 0.41016-0.74609 0.80469-1.2227 1.2188-0.74219 1.5039-0.82031 1.2227v0.39844l-0.40625 0.8125-0.80078 0.75v0.80078l-0.34766 0.41797v0.80469l-0.41016 0.76562-0.40625 1.957v0.40625l-0.33984 1.1602v0.46094l-0.46094 1.1641v10.641l0.46094 1.9609 0.33984 1.6328 0.81641 1.5703 0.34766 1.2109 0.46875 1.1523 0.33203 1.1758 0.40625 0.39844v0.39844l0.82031 1.5586 0.41016 0.8125 0.33203 1.2227 1.2227 1.9727 2.3789 3.5156 0.34375 0.41797 0.46875 0.34766 2.3086 3.168 1.625 1.5742 0.80859 0.45313 0.34766 0.36328 1.9648 1.625 1.9688 1.1445 1.2148 0.81641 1.5703 0.74609 2.4219 0.80859 2.3203 0.76172 1.9805 0.45313 2.7695 0.75781h0.81641l1.1484 0.40625 3.5938 0.34766h4.7422l2.3086-0.34766 2.4492-0.40625h1.1484l1.9688-0.40234 2.3789-0.35547 1.5586-0.79688 1.2109-0.41797 1.2266-0.39062 1.5547-0.41797 0.76172-0.39844 2.4258-0.75781 1.9688-1.2109 0.75-0.33984 0.81641-0.47656 1.9688-1.1484 1.5586-0.81641 2.7852-2.3047h0.39844l0.75391-0.82031 0.81641-0.40625 1.1484-1.5586 2.0312-1.6289 1.2148-1.5664 0.75-0.73828 0.41016-0.82422 0.35156-0.39062 1.6172-1.9805 0.34766-0.40234 0.45703-0.80859v-3.1328l1.1602-1.9648v-0.39844l0.40234-0.40625 1.5664-2.3789 1.1562-2.3789 1.6289-2.7695 1.5586-3.5352 0.40625-1.5625 0.80859-1.625v-0.35547l0.34766-0.79297 0.81641-2.3867 0.80078-2.7617 0.35156-1.5703 0.46484-1.2188 0.35156-3.1836v-3.9375l0.40625-1.5625v-0.41797l0.39453-3.5156v-10.715l-0.39453-3.1289-0.40625-3.168-0.35156-2.7266v-1.2109l-0.81641-3.2031-0.39453-2.7773-0.40625-0.75781v-0.79688l-1.1641-3.1875-0.41016-0.75391v-0.75l-0.80469-1.6172-0.75391-2.3789-0.80469-1.5742-0.81641-1.6172-1.5703-1.9609-1.5469-2.3164-0.41797-0.46094-0.40234-0.75781-1.6172-1.9648v-0.39844l-1.9648-2.3789-0.76172-0.76172-0.75-1.2188-1.6289-1.5547-1.1484-1.6172-1.2188-0.82422-0.75-0.75-2.7812-1.9609-0.81641-0.40625-1.1523-0.8125-2.7812-1.5508-2.7852-1.5703h-0.39844l-0.40234-0.41016-2.7734-1.2227-3.1328-1.1484-1.1523-0.39844-2.0273-0.75781-3.5312-0.81641-2.7812-0.81641h-1.1523l-3.5977-0.33594h-0.41016l-3.5234-0.45703-3.5938-0.35547h-3.1172l-3.5977 0.35547h-4.7422l-3.5352 0.79297-3.5312 0.81641-3.1797 0.81641-1.2266 0.34766-1.1484 0.41016-3.1211 1.207-0.8125 0.33984h-0.82031l-3.582 1.6328h-0.35547l-3.1836 1.5703-0.40234 0.39844-0.34766 0.33594-3.1836 2.0352-0.40234 0.39844h-0.41016l-3.1836 1.9805-0.34375 0.33203-0.8125 0.48047-2.7773 2.3086-2.7812 2.4258v0.35938l-0.34766 0.40234-3.1797 2.7773-0.40625 0.75391-0.81641 0.40234-2.3203 2.7773-2.7695 2.3867-0.81641 1.1406-1.1523 0.81641-2.4336 3.1172-2.7266 3.2539-0.40625 0.33203-0.33594 0.41797-2.7852 3.5234-0.46875 0.41797-0.34766 0.39844-2.3633 3.5977-2.375 3.5391v0.73047l-1.9648 3.5977-0.41016 0.81641-0.40625 0.34375-1.5625 3.5938v0.80078l-0.41016 0.80859-1.1523 3.125-1.2227 3.9453v0.40234l-0.39453 0.39844-0.81641 3.5352v1.2188l-0.34766 3.5391-0.80469 3.9961v1.1523l-0.35938 3.1289-0.45703 3.1797v22.176l0.45703 2.7148v3.5391l0.35938 2.0234 0.80469 3.1836v0.34375l0.81641 3.5938v0.34766l0.74219 3.1758 0.40625 0.81641v0.75781l1.168 3.1797 0.39453 0.75391v0.46875l1.5703 3.5273 1.625 3.1797 0.34766 0.75391 0.45703 1.2148 1.9609 3.1445 0.35156 0.39844 0.46875 0.80859 1.4961 4.3359 0.82031 0.81641 0.80078 0.74219 2.7812 2.375h0.35547v0.40234l2.7695 2.3828 0.81641 0.41016 0.40625 0.40234 3.1797 2.3047 3.1328 2.4492 0.41016 0.33984 0.39062 0.39062 3.1367 2.0352 1.207 0.35547 0.76172 0.39844 3.9336 1.5586h0.8125l3.9336 1.1641 3.9961 1.2109h0.76172l4.3906 1.2148h0.80859l3.4766 0.81641 3.9922 1.1641h1.9727l4.3398 0.33984h0.40625l3.9844 0.46094 4.6953 0.35547h0.40625l4.3438 0.40234h11.871l4.3359-0.40234 3.5312-0.35547h4.4062l2.3125-0.46094 4.4023-0.75 3.5273-0.75391 4.3477-0.81641 0.80469-0.39844h1.1602l3.9375-1.2148 3.582-0.8125 0.41406-0.34766h0.75781l3.9336-1.1641 0.80078-0.45703h0.81641l3.125-1.5078 3.5938-1.625 3.9414-1.6172 0.80078-0.33984 1.6211-0.81641 2.7227-1.5664 2.7852-1.2148 0.74219-0.33984 0.81641-0.40234 3.1875-2.0312 1.2188-0.76172 0.75-0.40234 2.3711-1.9648 2.7773-1.9688 0.35547-0.39844 0.45312-0.41797 3.1328-2.375 0.39844-0.39844 0.40234-0.34766 2.7852-2.4219 0.34766-0.36328 0.39844-0.40234 2.3828-2.7773 2.7734-2.7266 0.82031-1.207 0.73828-0.75781 1.9727-2.4219 2.3711-2.3281 0.81641-0.79688 0.80859-0.41797 2.3164-3.1758 0.46094-0.33984 1.1562 1.1445 1.5703-2.7695 1.9727-2.3906 0.39062-0.39844 0.41016-0.80859 1.9766-3.125 0.39844-0.8125 0.34766-0.75 1.6172-3.5273 1.5742-3.2539v-0.73828l0.80469-1.2148 1.2109-3.9414 1.168-3.9453 1.1484-3.5859v-1.1484l0.81641-3.9453v-1.168l0.40625-3.5781 0.74609-4.3516v-1.2109l0.46875-3.1172 0.34766-3.5938v-11.461z"/>
  <path d="m374.75 529.11v-0.81641l-0.81641-4.293v-0.45703l-0.80859-3.9336-0.80859-3.5273-0.75-1.5664-0.41016-1.2109-1.9648-3.9336-0.40625-0.41797v-0.34766l-1.5625-3.5859-1.9727-3.5977-0.46094-0.74219-0.34766-0.8125-2.375-3.5312-0.39844-0.40234-0.35156-0.81641-2.4336-3.1797-0.34766-0.34766-0.46094-0.40625-2.7188-3.1797-0.40625-0.35156-0.34766-0.46484-3.25-3.1172-0.74609-0.82422-0.40625-0.75391-3.9375-2.7695-3.5898-2.7773-0.75-0.41797-0.39844-0.33203-4.3477-2.7852-4.3438-2.7812-0.40234-0.41016-0.41016-0.39844-4.3398-1.9727-4.3398-2.3672h-0.40625l-0.75391-0.41016-4.4023-1.5625-4.7539-1.9648h-0.33203l-0.41016-0.41797-4.7539-1.5508h-0.74219l-0.46875-0.41016-3.9336-0.80469-4.3438-1.168h-1.2188l-4.2891-0.80078h-0.45703l-4.2812-0.34375h-17.836l-3.1289 0.34375-2.7695 0.80078-2.7891 0.35547-1.1523 0.46094-1.2227 0.35156-3.1797 1.2148h-0.75781l-3.1797 1.1523-0.81641 0.39844-1.1523 0.41797-2.3164 1.2109-0.46484 0.35547h-0.34766l-2.7695 1.6133-2.7852 1.5586-0.39453 0.40625-1.2227 0.81641-1.9727 1.5-2.3164 2.0312-1.2109 1.5586-1.5703 1.168-1.1523 1.6172-1.625 1.5664-0.34766 0.40234-1.6172 1.9648-1.6211 2.7852v0.39453l-0.34766 0.40625-1.1602 2.7969v0.33984l-0.45703 0.80078-0.76172 2.3789v0.39453l-0.40234 0.75781-0.80469 2.7812-0.34766 2.3789-0.46875 0.80859v8.2852l0.46875 2.3633 0.34766 2.7852 0.80469 2.3203 0.40234 1.6133 0.76172 1.9688 1.2109 3.1797 3.9922-2.0312v0.48047l1.1602 2.3086 1.1602 2.7812 0.40625 0.80469 0.39844 0.80469 1.9688 2.7227 1.6289 2.3867 0.33594 0.39844 0.81641 1.2109 1.5742 1.9766 1.5586 1.9609 0.41016 0.35938 0.39453 0.80469 1.9648 1.9609h0.41016v0.41406l1.9648 2.0273 1.5625 1.1562 0.81641 0.81641 1.9648 1.1484 1.6211 1.1641 0.74609 0.45313 0.8125 0.76953 2.3789 1.2109 1.5625 0.74219 0.8125 0.41016 2.7266 0.80469 2.4258 0.76562 1.9688 0.79297 4.7461 0.76172h1.9688l1.5586 0.47266h6.3125l1.6211-0.47266h1.1641l3.5859-0.34375 1.9727-0.41797h0.34766l1.9648-0.39844 0.8125-0.39453h0.80859l1.1562-0.41797 1.2148-0.34766 0.75781-0.44922 1.9648-0.76562 1.625-0.74219 1.5586-1.2109 2.7852-1.5781 0.75-0.40234 1.2188-0.80469 0.39453-0.41797 0.41016-0.33203 1.2227-1.2227 0.74219-0.75 0.41016-0.45703 1.9648-1.5703 0.35547-0.75781 0.46094-0.80469 0.33984-0.8125 1.2227-1.1641 0.74219-1.1523 0.47656-0.46094v-0.34766l0.33984-0.40625 0.40625-0.8125v-0.40625l0.74609-1.1445v-0.41797l0.47656-0.75391v-0.80859l0.33984-0.81641 0.40625-0.80469v-0.75l0.41016-0.81641 0.34766-3.9414v-0.80078l-0.75781-3.1953-0.40625-2.3047-1.9688-2.7773-1.1484-1.9688-3.1953-1.9727-1.5586-1.2227-5.5547-1.207-5.5625 1.207-1.5078 1.2227-0.80078 0.75781-1.9805 1.2148-0.45703 0.80859-0.34766 0.34375-0.80859 1.168-0.8125 1.2148-0.34766 0.79687-0.41016 0.76563-0.40625 0.44922v0.35547l-0.39453 0.41016v0.40234l-0.40625 0.33594v0.48047l-1.1719 1.5-0.39062 0.44922-0.75781 0.76562-2.4258 1.5625-0.35938 0.46875h-0.39453l-0.81641 0.34375-1.207 0.39453h-2.7266l-1.5625 0.41016h-0.40625l-1.5625-0.41016h-2.4336l-2.3164-0.73828-1.2109-0.46875h-0.40625l-1.5625-1.1602-0.75391-0.40234-0.46875-0.40625-0.74219-0.35938-0.40625-0.39844-1.1641-1.5508-1.625-1.9844h-0.34766l-0.45312-0.44922-1.1562-1.5625-1.1602-1.5664-1.2227-1.9688-0.74609-1.9727v-0.40625l-0.81641-2.0234-1.1602-2.7266v-0.80078l-0.45703-0.41797v-0.79688l-0.35547-1.9688v-1.9727l0.35547-1.1562 0.81641-1.6172 0.39063-0.76172 0.75781-0.74609 0.46875-0.8125 0.34766-0.40625 0.39844-0.81641 1.2227-0.75781h0.34766l1.207-1.2109 1.5625-1.2109 2.3789-1.1523 1.2148-0.33984 1.9648-0.81641 1.9688-0.80859 1.9688-0.41406h1.1602l1.6172-0.41016h13.426l3.1367 0.41016 3.5859 0.80469 3.9492 0.75781 3.9336 0.81641 3.5781 1.1523 4.3438 1.6289 3.5273 1.1523 4.0039 1.9688h0.40625l3.9414 1.9727 3.5703 2.0234 3.4883 2.3633 3.2344 2.3281 3.1328 2.4219 2.375 2.3203 2.375 2.7891 1.9727 2.4219 1.6172 2.3086 1.5 3.1953 1.6211 2.7695 1.1602 2.3828 0.45703 2.3086 0.76172 3.5859 0.75 3.9414 0.46094 2.4336v6.2617l-0.46094 2.7617-0.75 2.7852-0.76172 3.1367-1.207 3.2422-1.2148 2.7031-2.3164 3.1992-2.0273 3.1211-2.7227 3.1836-3.9961 3.5273-3.9375 3.9375-3.5391 3.2461-4.7383 3.4805-4.7461 3.582-4.7422 3.1758-5.1641 3.2031-4.3359 2.3008-4.7461 2.4297-4.3477 1.5078-3.9922 0.82031-4.2852 0.81641-4.4023 0.39062h-3.5273l-3.9961-0.80859-4.2852-0.75-4.4023-1.2109-3.9375-1.5625-4.7383-1.9727-4.3555-1.9609-4.332-2.4453-3.9336-2.3047-3.5898-2.4414-3.9492-3.125-3.5859-3.125-3.125-3.2461-2.7734-3.1211-2.7773-3.9414-2.3164-3.9453-1.9727-3.9844-1.6172-4.3438-1.9688-5.0859-1.625-4.4141-1.1562-4.7461v-0.34375l-1.5703-5.5508-1.2109-4.7578-0.80469-5.082-0.35156-5.5625-0.41016-5.5625-0.40234-5.5547v-15l0.40234-4.332 0.41016-4.3555 0.80859-4.332 0.34766-3.5859 1.2109-3.1328 0.76172-3.125 1.207-3.2383v-0.34375l0.41797-0.41406 0.80859-2.7812 1.5547-2.7188 1.9688-3.5938 1.5742-3.1172 1.9648-2.4375 1.9688-3.1289 0.45703-0.80859 0.34766-0.33594 1.1602-2.0312 1.2148-1.2188 2.0234-1.9766 2.3203-2.3125 1.6172-1.625 1.9688-1.5586h0.34766l1.9688-1.5586 1.9727-1.2148 2.4336-1.1641 2.3164-1.2148h0.45703l1.9648-0.8125 1.9688-0.34766 3.1289-0.79688 3.1797-0.8125 2.7852-0.35938 2.7266-0.39844h0.80078l2.7891-0.41797h3.582l3.125-0.39844h4.3516l3.1836-0.40234h6.3125l3.5273 0.40234h4.3906l3.1406 0.39844h4.7383l3.5898 0.41797h4.2852l3.1797 0.75781h0.81641l4.3438 0.8125 3.9336 0.79688 3.5859 0.81641 3.1211 0.75 3.5859 1.2148h1.168l3.5898 0.35938 2.3242 0.39844 2.4258 0.81641 2.7812 0.73828 2.3164 0.82031 1.2148 0.39844 1.207 0.41016h0.76172l1.2109 0.80859 1.5 0.33984h0.47266l0.75 0.41797h0.80469l3.5352 0.78906h4.7539l1.6172-0.39062h0.34766l-0.34766 0.39062h0.74609l0.41016-0.39062 0.40234-0.39844 1.5664-1.2148 0.40234-0.35156v-0.41016l1.2148-1.957v-0.41797l0.35156-2.3711-0.80859-2.3633v-0.35547l-0.34766-1.6328-0.41016-0.39844-0.40234-0.40234v-0.34766l-0.34766-0.45703-0.45703-0.35547-0.35547-0.40625-0.80859-0.75-1.1562-0.81641-0.46484-0.39844-0.34375-0.75781-0.41016-0.45703-0.39844-0.34766-0.35156-0.40625-1.2188-0.80469-1.2148-0.76562-0.34766-0.45703-1.2148-0.33594-1.2188-0.81641-1.5-0.81641-0.46875-0.34375-1.9648-0.80469-2.3164-1.1562-2.7773-1.2109-3.1875-1.582h-0.39844l-0.81641-0.39844-3.5273-1.2188h-0.75391l-3.1797-0.73828-2.7812-0.81641-3.543-1.2227h-0.80078l-0.82031-0.34766-4.332-1.1523-3.9375-0.8125-4.0039-0.81641-3.9336-1.1523-1.5625-0.41797h-0.74219l-3.6016-0.39453-3.5781-0.82031h-1.5703l-3.5273-0.33203-3.5938-0.46094h-5.0898l-3.5898-0.34766h-0.35156l-3.9961-0.40625-0.74609 1.9648h-5.5664l-2.7773 0.40234h-5.0898l-3.5898 0.39453h-4.7383l-3.1406 0.41797-3.2461 0.34766h-1.5l-3.5859 0.80469h-0.41016l-3.5234 0.81641h-0.41016l-3.1797 0.8125-3.1328 0.74219-1.9688 0.75781h-0.8125l-2.7773 1.6211-2.7734 1.6328-0.35547 0.33203-0.80469 0.41016-2.7812 1.5586-2.7695 1.9648-0.35547 0.41406-0.80859 0.41016-2.3789 1.9648-2.7812 1.9688-0.39844 0.40625-0.80859 0.41016-2.3203 1.9688h-0.41016l-2.3633 2.3594-2.3789 1.9688-0.40234 0.39844-0.39844 0.41797-2.7266 2.7148-1.207 1.6172-0.76172 0.81641-1.6289 2.7812-1.6055 2.3086-2.3281 3.1875-0.39844 1.2266-0.40625 0.33984-1.9727 3.9375-1.9688 3.1992-1.9648 3.5156v0.81641l-0.8125 1.6055-1.1562 3.5391-1.6172 3.5391v0.79688l-0.35547 0.81641-1.2188 3.9336-1.2148 3.9453v0.80859l-0.33984 0.81641-0.80859 4.2695-0.82031 4.7539v0.47266l-0.34375 4.2773-0.80469 5.1484v25.715l0.33594 5.9648 0.46875 5.4922v0.40625l0.75781 5.8945v1.1758l1.2148 5.5508v0.8125l1.1562 5.5625 1.1562 5.9023 0.46094 0.80469v0.74609l1.9727 5.5703 1.9688 5.1406 1.9648 5.5078 0.8125 1.2148v0.75391l2.7227 4.7539v0.39844l2.7773 4.3516 0.39844 0.39844 0.36328 0.33594 3.2344 4.75 0.35156 0.48047 0.41016 0.74609 3.5234 4.3438 0.41016 0.40625 0.39844 0.74219 3.9336 3.9922h0.40234v0.41016l4 3.5312h0.34766l4.4023 3.5352 0.34766 0.46094 0.39844 0.35547 4.7461 3.1758 0.76172 0.40234 0.45703 0.35938 4.7461 2.7734 5.0938 2.7734h0.8125l5.1016 2.7852h0.45703l0.75391 0.40625 5.1484 1.957 5.0977 1.9883h0.81641l1.1562 0.39844 5.5625 1.1484 5.1523 1.2148h0.74219l5.5586 0.75391h8.3438l5.0938-0.34766h0.80078l5.5586-0.80859h1.5117l5.5664-1.1484 1.1484-0.48047h0.81641l5.5469-1.9531 0.41016-0.35938h0.40625l5.4961-2.3633 0.41016-0.40625h0.40625l5.1523-2.7852 0.34375-0.33984h0.46484l5.4961-3.25h0.40625l5.5-3.5234 0.40625-0.41016 0.80078-0.35156 5.1133-3.9375 5.1484-3.9922 0.41016-0.41016 0.39844-0.33984 4.3398-3.9961 0.41016-0.39844 0.40234-0.35156 4.2773-4.4062 4.0039-3.9336 0.41016-0.34375-0.81641 1.4961 3.9336-4.2695 0.81641-1.2148 0.80859-0.41406 2.7773-3.9375 2.7188-4.3359 0.40625-0.81641 0.8125-0.75391 1.9688-3.9336v-0.46875l0.34766-0.34766 2.0273-4.3945v-0.33594l0.40234-0.8125 1.1562-3.9414v-0.81641l1.1641-4.3398v-1.2188l0.46094-0.76172 0.34766-4.332v-13.082l-0.34766-3.5352z"/>
 </g>
</svg>